# xmcd
# Track frame offsets:
# 150
# 15119
# 31886
# 43543
# 60108
# 73544
# 92512
# 103727
# 115073
# 129379
# 142633
# 153764
#
# Disc length: 2285 seconds
# Revision: 0
# Processed by: cddbd v1.4PL0 Copyright (c) Steve Scherf et al.
# Submitted via: VisiTrax 2.9.5.181 - For more info visit www.synapsa.com
#
DISCID=7d08eb0c
DTITLE=Various Artisits - Ultimate Country Hits Volume 4 cd3
DYEAR=2003
DGENRE=Country
TTITLE0=Pam Tillis - Maybe it was Memphis
TTITLE1=Mark Chesnutt - Gonna Get a life
TTITLE2=Bill Engvall feat.Travis Twitt - Here's your Sign
TTITLE3=Carlene Carter - I fell in love
TTITLE4=Daryle Singletary - I let her lie
TTITLE5=The desert rose band - I still believe in you
TTITLE6=Ricly Van Shelton - I've cried my last tear for you
TTITLE7=Kevin Sharp - If you love sombody
TTITLE8=Doug supernaw - Not enough hours in the night
TTITLE9=Hal Ketchum - Small town Saturday Night
TTITLE10=Ricky Skaggs - Solid Ground
TTITLE11=Billy Joe Royal - Till I can't Take It anymore
EXTD=
EXTT0=
EXTT1=
EXTT2=
EXTT3=
EXTT4=
EXTT5=
EXTT6=
EXTT7=
EXTT8=
EXTT9=
EXTT10=
EXTT11=
PLAYORDER=
